<svg width="403" height="560" viewBox="0 0 403 560" fill="none" xmlns="http://www.w3.org/2000/svg">
<path d="M245.131 41.2887C282.479 -2.58438 330.65 0.0296349 330.65 0.0296349C330.65 0.0296349 335.27 43.622 298.407 83.1775C259.042 125.417 217.704 115.688 217.704 115.688C217.704 115.688 211.919 80.3034 245.131 41.2887Z" fill="#F08427"/>
<path fill-rule="evenodd" clip-rule="evenodd" d="M194.671 475.027C258.875 478.812 313.98 430.004 317.752 366.011C321.523 302.018 272.533 247.073 208.329 243.289C144.125 239.504 89.0196 288.312 85.2483 352.305C81.477 416.298 130.467 471.243 194.671 475.027ZM189.685 559.643C300.775 566.192 396.122 481.741 402.647 371.016C409.173 260.29 324.406 165.221 213.315 158.672C102.225 152.124 6.87824 236.575 0.352842 347.3C-6.17256 458.025 78.5942 553.095 189.685 559.643Z" fill="#F08427"/>
</svg>
