<svg width="47" height="47" viewBox="0 0 47 47" fill="none" xmlns="http://www.w3.org/2000/svg">
<path d="M20.5403 23.0355C21.1901 23.3214 21.697 23.7503 22.0609 24.3221C22.4248 24.894 22.6067 25.5698 22.6067 26.3496C22.6067 27.4673 22.2558 28.377 21.554 29.0788C20.8522 29.7546 19.9555 30.0925 18.8638 30.0925C17.7721 30.0925 16.8623 29.7416 16.1345 29.0398C15.4327 28.338 15.0818 27.4413 15.0818 26.3496C15.0818 25.8297 15.1468 25.3099 15.2768 24.79C15.4067 24.2701 15.6926 23.4904 16.1345 22.4506L18.3959 16.8362H22.2558L20.5403 23.0355ZM29.7418 23.0355C30.3916 23.3214 30.8985 23.7503 31.2624 24.3221C31.6263 24.894 31.8082 25.5698 31.8082 26.3496C31.8082 27.4673 31.4573 28.377 30.7555 29.0788C30.0537 29.7546 29.1569 30.0925 28.0652 30.0925C26.9735 30.0925 26.0638 29.7416 25.336 29.0398C24.6342 28.338 24.2833 27.4413 24.2833 26.3496C24.2833 25.8297 24.3483 25.3099 24.4782 24.79C24.6082 24.2701 24.8941 23.4904 25.336 22.4506L27.5974 16.8362H31.4573L29.7418 23.0355Z" fill="#F08427"/>
<circle cx="23.4998" cy="23.4822" r="22.9822" stroke="#F08427"/>
</svg>
