<svg width="447" height="613" viewBox="0 0 447 613" fill="none" xmlns="http://www.w3.org/2000/svg">
<path d="M287.663 41.3764C331.097 -5.16999 384.131 0.187605 384.131 0.187605C384.131 0.187605 387.032 48.576 344.351 90.3782C298.774 135.016 253.641 122.151 253.641 122.151C253.641 122.151 249.04 82.7683 287.663 41.3764Z" fill="#F08427"/>
<path fill-rule="evenodd" clip-rule="evenodd" d="M210.097 517.89C280.768 525.363 344.049 474.276 351.438 403.784C358.828 333.292 307.528 270.088 236.858 262.615C166.187 255.142 102.906 306.229 95.5168 376.722C88.1272 447.214 139.427 510.417 210.097 517.89ZM200.326 611.101C322.606 624.031 432.098 535.636 444.884 413.665C457.67 291.695 368.908 182.336 246.629 169.405C124.349 156.475 14.8567 244.87 2.07066 366.84C-10.7153 488.811 78.0467 598.17 200.326 611.101Z" fill="#F08427"/>
</svg>
