<svg width="579" height="816" viewBox="0 0 579 816" fill="none" xmlns="http://www.w3.org/2000/svg">
<path d="M325.156 66.525C374.939 0.324226 444.145 0 444.145 0C444.145 0 454.44 62.2427 404.987 122.199C352.178 186.223 292.158 175.747 292.158 175.747C292.158 175.747 280.886 125.395 325.156 66.525Z" fill="#F08427"/>
<path fill-rule="evenodd" clip-rule="evenodd" d="M289.5 694C381.766 694 456.561 619.204 456.561 526.939C456.561 434.674 381.766 359.878 289.5 359.878C197.235 359.878 122.439 434.674 122.439 526.939C122.439 619.204 197.235 694 289.5 694ZM289.5 816C449.144 816 578.561 686.583 578.561 526.939C578.561 367.295 449.144 237.878 289.5 237.878C129.856 237.878 0.439453 367.295 0.439453 526.939C0.439453 686.583 129.856 816 289.5 816Z" fill="#F08427"/>
</svg>
