<svg width="50" height="50" viewBox="0 0 50 50" fill="none" xmlns="http://www.w3.org/2000/svg">
<circle cx="25" cy="25" r="25" fill="#48280C"/>
<path d="M18.3339 38.4599H31.6678C34.2671 38.4599 35.5603 37.1415 35.5603 34.5299V23.1294C35.5603 21.5094 35.3846 20.8065 34.3802 19.7769L27.4491 12.7333C26.4955 11.7535 25.7166 11.5403 24.298 11.5403H18.3339C15.7475 11.5403 14.4414 12.871 14.4414 15.4831V34.5299C14.4414 37.1539 15.7475 38.4599 18.3339 38.4599ZM18.4341 36.4387C17.1409 36.4387 16.4627 35.7476 16.4627 34.4924V15.5206C16.4627 14.2778 17.1409 13.5615 18.4469 13.5615H24.0216V20.8569C24.0216 22.4389 24.8252 23.2172 26.3819 23.2172H33.5391V34.4924C33.5391 35.7476 32.8732 36.4387 31.5677 36.4387H18.4341ZM26.608 21.3208C26.1184 21.3208 25.9169 21.1205 25.9169 20.618V13.951L33.1491 21.3214L26.608 21.3208Z" fill="white"/>
</svg>
