<svg width="50" height="50" viewBox="0 0 50 50" fill="none" xmlns="http://www.w3.org/2000/svg">
<circle cx="25" cy="25" r="25" fill="#48280C"/>
<path d="M24.9991 23.125C23.6733 23.125 22.4017 22.6311 21.4642 21.7521C20.5267 20.873 20 19.6807 20 18.4375C20 17.1943 20.5267 16.002 21.4642 15.1229C22.4017 14.2439 23.6733 13.75 24.9991 13.75C26.325 13.75 27.5965 14.2439 28.534 15.1229C29.4715 16.002 29.9982 17.1943 29.9982 18.4375C29.9982 19.6807 29.4715 20.873 28.534 21.7521C27.5965 22.6311 26.325 23.125 24.9991 23.125ZM24.9991 15.625C23.3394 15.625 21.9996 16.8813 21.9996 18.4375C21.9996 19.9938 23.3394 21.25 24.9991 21.25C26.6588 21.25 27.9986 19.9938 27.9986 18.4375C27.9986 16.8813 26.6588 15.625 24.9991 15.625Z" fill="white"/>
<path d="M36.9972 30.625C36.4373 30.625 35.9973 30.2125 35.9973 29.6875C35.9973 29.1625 36.4373 28.75 36.9972 28.75C37.5571 28.75 37.997 28.3375 37.997 27.8125C37.997 26.5693 37.4703 25.377 36.5328 24.4979C35.5953 23.6189 34.3237 23.125 32.9979 23.125H30.9982C30.4383 23.125 29.9984 22.7125 29.9984 22.1875C29.9984 21.6625 30.4383 21.25 30.9982 21.25C32.6579 21.25 33.9977 19.9938 33.9977 18.4375C33.9977 16.8813 32.6579 15.625 30.9982 15.625C30.4383 15.625 29.9984 15.2125 29.9984 14.6875C29.9984 14.1625 30.4383 13.75 30.9982 13.75C32.3241 13.75 33.5956 14.2439 34.5331 15.1229C35.4706 16.002 35.9973 17.1943 35.9973 18.4375C35.9973 19.6 35.5574 20.65 34.7975 21.475C37.777 22.225 39.9966 24.775 39.9966 27.8125C39.9966 29.3687 38.6569 30.625 36.9972 30.625ZM13.0014 30.625C11.3417 30.625 10.002 29.3687 10.002 27.8125C10.002 24.775 12.2016 22.225 15.201 21.475C14.4612 20.65 14.0012 19.6 14.0012 18.4375C14.0012 17.1943 14.5279 16.002 15.4654 15.1229C16.403 14.2439 17.6745 13.75 19.0004 13.75C19.5603 13.75 20.0002 14.1625 20.0002 14.6875C20.0002 15.2125 19.5603 15.625 19.0004 15.625C17.3406 15.625 16.0009 16.8813 16.0009 18.4375C16.0009 19.9938 17.3406 21.25 19.0004 21.25C19.5603 21.25 20.0002 21.6625 20.0002 22.1875C20.0002 22.7125 19.5603 23.125 19.0004 23.125H17.0007C15.6749 23.125 14.4033 23.6189 13.4658 24.4979C12.5283 25.377 12.0016 26.5693 12.0016 27.8125C12.0016 28.3375 12.4415 28.75 13.0014 28.75C13.5613 28.75 14.0012 29.1625 14.0012 29.6875C14.0012 30.2125 13.5613 30.625 13.0014 30.625ZM30.9982 36.25H19.0004C17.3406 36.25 16.0009 34.9937 16.0009 33.4375V31.5625C16.0009 27.9438 19.1403 25 22.9996 25H26.9989C30.8582 25 33.9977 27.9438 33.9977 31.5625V33.4375C33.9977 34.9937 32.6579 36.25 30.9982 36.25ZM22.9996 26.875C21.6738 26.875 20.4023 27.3689 19.4647 28.2479C18.5272 29.127 18.0005 30.3193 18.0005 31.5625V33.4375C18.0005 33.9625 18.4405 34.375 19.0004 34.375H30.9982C31.5581 34.375 31.998 33.9625 31.998 33.4375V31.5625C31.998 30.3193 31.4714 29.127 30.5338 28.2479C29.5963 27.3689 28.3248 26.875 26.9989 26.875H22.9996Z" fill="white"/>
</svg>
