<svg width="50" height="50" viewBox="0 0 50 50" fill="none" xmlns="http://www.w3.org/2000/svg">
<circle cx="25" cy="25" r="25" fill="#48280C"/>
<path d="M16.25 36.25C15.8958 36.25 15.5992 36.13 15.36 35.89C15.1208 35.65 15.0008 35.3533 15 35V33.75C13.9583 33.75 13.0729 33.3854 12.3438 32.6562C11.6146 31.9271 11.25 31.0417 11.25 30V23.75C11.25 22.7083 11.6146 21.8229 12.3438 21.0938C13.0729 20.3646 13.9583 20 15 20V17.5C15 16.4583 15.3646 15.5729 16.0938 14.8438C16.8229 14.1146 17.7083 13.75 18.75 13.75H31.25C32.2917 13.75 33.1771 14.1146 33.9062 14.8438C34.6354 15.5729 35 16.4583 35 17.5V20C36.0417 20 36.9271 20.3646 37.6562 21.0938C38.3854 21.8229 38.75 22.7083 38.75 23.75V30C38.75 31.0417 38.3854 31.9271 37.6562 32.6562C36.9271 33.3854 36.0417 33.75 35 33.75V35C35 35.3542 34.88 35.6512 34.64 35.8912C34.4 36.1312 34.1033 36.2508 33.75 36.25C33.3967 36.2492 33.1 36.1292 32.86 35.89C32.62 35.6508 32.5 35.3542 32.5 35V33.75H17.5V35C17.5 35.3542 17.38 35.6512 17.14 35.8912C16.9 36.1312 16.6033 36.2508 16.25 36.25ZM15 31.25H35C35.3542 31.25 35.6512 31.13 35.8912 30.89C36.1312 30.65 36.2508 30.3533 36.25 30V23.75C36.25 23.3958 36.13 23.0992 35.89 22.86C35.65 22.6208 35.3533 22.5008 35 22.5C34.6467 22.4992 34.35 22.6192 34.11 22.86C33.87 23.1008 33.75 23.3975 33.75 23.75V28.75H16.25V23.75C16.25 23.3958 16.13 23.0992 15.89 22.86C15.65 22.6208 15.3533 22.5008 15 22.5C14.6467 22.4992 14.35 22.6192 14.11 22.86C13.87 23.1008 13.75 23.3975 13.75 23.75V30C13.75 30.3542 13.87 30.6512 14.11 30.8912C14.35 31.1312 14.6467 31.2508 15 31.25ZM18.75 26.25H31.25V23.75C31.25 23.1875 31.3646 22.6771 31.5938 22.2188C31.8229 21.7604 32.125 21.3542 32.5 21V17.5C32.5 17.1458 32.38 16.8492 32.14 16.61C31.9 16.3708 31.6033 16.2508 31.25 16.25H18.75C18.3958 16.25 18.0992 16.37 17.86 16.61C17.6208 16.85 17.5008 17.1467 17.5 17.5V21C17.875 21.3542 18.1771 21.7604 18.4062 22.2188C18.6354 22.6771 18.75 23.1875 18.75 23.75V26.25Z" fill="white"/>
</svg>
