<svg width="50" height="50" viewBox="0 0 50 50" fill="none" xmlns="http://www.w3.org/2000/svg">
<circle cx="25" cy="25" r="25" fill="#48280C"/>
<path d="M24.5 11.9333L24.8435 11.0989C24.7369 11.0339 24.6192 11 24.5 11C24.3808 11 24.2631 11.0339 24.1565 11.0989L24.5 11.9333ZM19.9 26.8667V25.9333H19.1333V26.8667H19.9ZM26.0333 26.8667H26.8V25.9333H26.0333V26.8667ZM13 39H36V37.1333H13V39ZM24.1565 11.0989L14.9565 16.6989L15.6435 18.3677L24.8435 12.7677L24.1565 11.0989ZM13 22.2H36V20.3333H13V22.2ZM34.0435 16.6989L24.8435 11.0989L24.1565 12.7677L33.3565 18.3677L34.0435 16.6989ZM14.5333 21.2666V38.0667H16.0667V21.2666H14.5333ZM32.9333 21.2666V38.0667H34.4667V21.2666H32.9333ZM20.6667 38.0667V26.8667H19.1333V38.0667H20.6667ZM19.9 27.8H26.0333V25.9333H19.9V27.8ZM25.2667 26.8667V38.0667H26.8V26.8667H25.2667Z" fill="white"/>
</svg>
