<svg width="50" height="50" viewBox="0 0 50 50" fill="none" xmlns="http://www.w3.org/2000/svg">
<circle cx="25" cy="25" r="25" fill="#48280C"/>
<path d="M34.6094 15.625H32.9688V13.5156C32.9688 13.126 32.6553 12.8125 32.2656 12.8125H14.9219C14.5322 12.8125 14.2188 13.126 14.2188 13.5156V21.4844C14.2188 21.874 14.5322 22.1875 14.9219 22.1875H32.2656C32.6553 22.1875 32.9688 21.874 32.9688 21.4844V17.5H33.9062V23.3594H23.623C22.9756 23.3594 22.4512 23.8838 22.4512 24.5312V28.5156H21.1621C21.0332 28.5156 20.9277 28.6211 20.9277 28.75V35.4297C20.9277 35.4473 20.9307 35.4678 20.9336 35.4854C20.9307 35.5439 20.9277 35.6055 20.9277 35.6641C20.9277 37.0234 22.0293 38.125 23.3887 38.125C24.748 38.125 25.8496 37.0234 25.8496 35.6641C25.8496 35.6025 25.8467 35.5439 25.8438 35.4854C25.8467 35.4678 25.8496 35.4502 25.8496 35.4297V28.75C25.8496 28.6211 25.7441 28.5156 25.6152 28.5156H24.3262V25.2344H34.6094C35.2568 25.2344 35.7812 24.71 35.7812 24.0625V16.7969C35.7812 16.1494 35.2568 15.625 34.6094 15.625ZM31.0938 20.3125H16.0938V14.6875H31.0938V20.3125ZM23.9746 35.6641C23.9746 35.9863 23.7109 36.25 23.3887 36.25C23.0664 36.25 22.8027 35.9863 22.8027 35.6641V30.3906H23.9746V35.6641Z" fill="white"/>
</svg>
