<svg width="175" height="52" viewBox="0 0 175 52" fill="none" xmlns="http://www.w3.org/2000/svg">
<path d="M174.992 15.9387C175.06 15.3906 174.671 14.8911 174.123 14.8231L165.192 13.7144C164.644 13.6463 164.144 14.0355 164.076 14.5836C164.008 15.1317 164.397 15.6311 164.945 15.6991L172.884 16.6847L171.899 24.6237C171.831 25.1718 172.22 25.6713 172.768 25.7393C173.316 25.8073 173.816 25.4182 173.884 24.8701L174.992 15.9387ZM0.0327618 1.25387C2.17681 9.42264 8.42535 18.9445 17.9476 27.4974C27.4858 36.0648 40.369 43.7164 55.8819 48.1063C86.9479 56.8974 128.443 52.5788 174.615 16.6043L173.385 15.0267C127.651 50.6604 86.8045 54.7783 56.4264 46.1818C41.2172 41.8779 28.6027 34.3797 19.284 26.0095C9.94935 17.625 3.98184 8.4217 1.96724 0.74613L0.0327618 1.25387Z" fill="white"/>
</svg>
