<svg width="50" height="50" viewBox="0 0 50 50" fill="none" xmlns="http://www.w3.org/2000/svg">
<circle cx="25" cy="25" r="25" fill="#48280C"/>
<g clip-path="url(#clip0_3_136)">
<path d="M30.625 11.875C31.1223 11.875 31.5992 12.0725 31.9508 12.4242C32.3025 12.7758 32.5 13.2527 32.5 13.75V36.25C32.5 36.7473 32.3025 37.2242 31.9508 37.5758C31.5992 37.9275 31.1223 38.125 30.625 38.125H19.375C18.8777 38.125 18.4008 37.9275 18.0492 37.5758C17.6975 37.2242 17.5 36.7473 17.5 36.25V13.75C17.5 13.2527 17.6975 12.7758 18.0492 12.4242C18.4008 12.0725 18.8777 11.875 19.375 11.875H30.625ZM19.375 10C18.3804 10 17.4266 10.3951 16.7233 11.0983C16.0201 11.8016 15.625 12.7554 15.625 13.75V36.25C15.625 37.2446 16.0201 38.1984 16.7233 38.9016C17.4266 39.6049 18.3804 40 19.375 40H30.625C31.6196 40 32.5734 39.6049 33.2766 38.9016C33.9799 38.1984 34.375 37.2446 34.375 36.25V13.75C34.375 12.7554 33.9799 11.8016 33.2766 11.0983C32.5734 10.3951 31.6196 10 30.625 10H19.375Z" fill="white"/>
<path d="M25 36.25C25.4973 36.25 25.9742 36.0525 26.3258 35.7008C26.6775 35.3492 26.875 34.8723 26.875 34.375C26.875 33.8777 26.6775 33.4008 26.3258 33.0492C25.9742 32.6975 25.4973 32.5 25 32.5C24.5027 32.5 24.0258 32.6975 23.6742 33.0492C23.3225 33.4008 23.125 33.8777 23.125 34.375C23.125 34.8723 23.3225 35.3492 23.6742 35.7008C24.0258 36.0525 24.5027 36.25 25 36.25Z" fill="white"/>
</g>
<defs>
<clipPath id="clip0_3_136">
<rect width="30" height="30" fill="white" transform="translate(10 10)"/>
</clipPath>
</defs>
</svg>
