<svg width="50" height="50" viewBox="0 0 50 50" fill="none" xmlns="http://www.w3.org/2000/svg">
<circle cx="25" cy="25" r="25" fill="#48280C"/>
<path d="M17.5 21.25C17.5 23.2391 18.2902 25.1468 19.6967 26.5533C21.1032 27.9598 23.0109 28.75 25 28.75C26.9891 28.75 28.8968 27.9598 30.3033 26.5533C31.7098 25.1468 32.5 23.2391 32.5 21.25C32.5 19.2609 31.7098 17.3532 30.3033 15.9467C28.8968 14.5402 26.9891 13.75 25 13.75C23.0109 13.75 21.1032 14.5402 19.6967 15.9467C18.2902 17.3532 17.5 19.2609 17.5 21.25Z" stroke="white" stroke-width="2.5" stroke-linecap="round" stroke-linejoin="round"/>
<path d="M24.9995 28.75L29.2495 36.1125L31.247 32.0712L35.7445 32.3612L31.4945 25M18.502 25L14.252 32.3625L18.7495 32.0712L20.747 36.1112L24.997 28.75" stroke="white" stroke-width="2.5" stroke-linecap="round" stroke-linejoin="round"/>
</svg>
