<svg width="50" height="50" viewBox="0 0 50 50" fill="none" xmlns="http://www.w3.org/2000/svg">
<circle cx="25" cy="25" r="25" fill="#48280C"/>
<path d="M23.0648 16.1676C22.8446 15.948 22.5726 15.7874 22.274 15.7006C21.9754 15.6138 21.6597 15.6036 21.3561 15.671C21.0525 15.7383 20.7708 15.8811 20.5369 16.0861C20.303 16.291 20.1245 16.5516 20.0179 16.8438L13.8667 33.7633C13.7657 34.0423 13.733 34.3415 13.7715 34.6357C13.8101 34.9299 13.9186 35.2107 14.088 35.4543C14.2575 35.6979 14.4829 35.8973 14.7454 36.0357C15.0078 36.1742 15.2997 36.2477 15.5964 36.25C15.8149 36.2485 16.0314 36.2089 16.2363 36.1328L33.1546 29.9805C33.4468 29.874 33.7075 29.6956 33.9126 29.4618C34.1177 29.228 34.2606 28.9462 34.3281 28.6426C34.3956 28.339 34.3855 28.0233 34.2988 27.7246C34.2121 27.4259 34.0515 27.1539 33.832 26.9336L23.0648 16.1676ZM22.0886 32.0125L17.987 27.9109L19.5292 23.6676L26.332 30.4703L22.0886 32.0125ZM15.6433 34.3562L17.2839 29.8551L20.1491 32.7203L15.6433 34.3562ZM28.2808 29.7625L20.237 21.7188L21.7605 17.5152L32.4749 28.2297L28.2808 29.7625ZM28.7495 18.4375C28.7671 17.8037 28.9206 17.1811 29.1995 16.6117C29.8206 15.3707 30.9925 14.6875 32.4995 14.6875C33.2847 14.6875 33.7886 14.4191 34.0991 13.8426C34.2627 13.52 34.3565 13.1667 34.3745 12.8055C34.3755 12.5568 34.4751 12.3187 34.6516 12.1436C34.8281 11.9684 35.0669 11.8706 35.3156 11.8715C35.5642 11.8724 35.8023 11.9721 35.9774 12.1486C36.1526 12.325 36.2505 12.5639 36.2495 12.8125C36.2495 14.3195 35.2511 16.5625 32.4995 16.5625C31.7144 16.5625 31.2105 16.8309 30.8999 17.4074C30.7364 17.73 30.6426 18.0833 30.6245 18.4445C30.6241 18.5676 30.5994 18.6895 30.5518 18.803C30.5043 18.9166 30.4348 19.0197 30.3475 19.1064C30.2601 19.1931 30.1565 19.2618 30.0426 19.3085C29.9286 19.3552 29.8066 19.379 29.6835 19.3785C29.5604 19.3781 29.4386 19.3533 29.325 19.3058C29.2115 19.2583 29.1084 19.1888 29.0216 19.1014C28.9349 19.0141 28.8662 18.9105 28.8196 18.7965C28.7729 18.6826 28.7491 18.5606 28.7495 18.4375ZM25.937 14.6875V11.875C25.937 11.6264 26.0358 11.3879 26.2116 11.2121C26.3874 11.0363 26.6259 10.9375 26.8745 10.9375C27.1232 10.9375 27.3616 11.0363 27.5375 11.2121C27.7133 11.3879 27.812 11.6264 27.812 11.875V14.6875C27.812 14.9361 27.7133 15.1746 27.5375 15.3504C27.3616 15.5262 27.1232 15.625 26.8745 15.625C26.6259 15.625 26.3874 15.5262 26.2116 15.3504C26.0358 15.1746 25.937 14.9361 25.937 14.6875ZM37.8503 24.3367C37.9373 24.4238 38.0064 24.5272 38.0534 24.641C38.1005 24.7548 38.1247 24.8767 38.1246 24.9998C38.1246 25.123 38.1003 25.2449 38.0531 25.3586C38.0059 25.4723 37.9368 25.5757 37.8497 25.6627C37.7626 25.7497 37.6592 25.8187 37.5455 25.8658C37.4317 25.9129 37.3098 25.9371 37.1866 25.937C37.0635 25.937 36.9416 25.9127 36.8279 25.8655C36.7141 25.8183 36.6108 25.7492 36.5238 25.6621L34.6488 23.7871C34.4728 23.6112 34.374 23.3726 34.374 23.1238C34.374 22.875 34.4728 22.6365 34.6488 22.4605C34.8247 22.2846 35.0633 22.1858 35.312 22.1858C35.5608 22.1858 35.7994 22.2846 35.9753 22.4605L37.8503 24.3367ZM38.421 19.327L35.6085 20.2645C35.3726 20.3431 35.1152 20.3248 34.8927 20.2136C34.6703 20.1024 34.5012 19.9074 34.4226 19.6715C34.344 19.4356 34.3623 19.1781 34.4735 18.9557C34.5847 18.7333 34.7797 18.5642 35.0156 18.4855L37.8281 17.548C38.064 17.4694 38.3214 17.4877 38.5438 17.5989C38.7662 17.7101 38.9354 17.9051 39.014 18.141C39.0926 18.3769 39.0743 18.6344 38.9631 18.8568C38.8519 19.0792 38.6569 19.2483 38.421 19.327Z" fill="white"/>
</svg>
