<svg width="50" height="50" viewBox="0 0 50 50" fill="none" xmlns="http://www.w3.org/2000/svg">
<circle cx="25" cy="25" r="25" fill="#48280C"/>
<g clip-path="url(#clip0_3_123)">
<path d="M30.5961 25.66C33.16 25.66 35.2493 23.3763 35.2493 20.5975C35.2493 17.8504 33.1707 15.6743 30.5961 15.6743C28.0429 15.6743 25.9423 17.8825 25.9423 20.619C25.953 23.387 28.0429 25.66 30.5961 25.66ZM18.1868 25.8968C20.4057 25.8968 22.2261 23.904 22.2261 21.459C22.2261 19.0675 20.4271 17.1395 18.1868 17.1395C15.9679 17.1395 14.1368 19.1002 14.1475 21.4804C14.1582 23.9152 15.9679 25.8968 18.1868 25.8968ZM30.5961 24.0336C29.0232 24.0336 27.6764 22.5256 27.6764 20.619C27.6764 18.744 29.0018 17.3013 30.5961 17.3013C32.2011 17.3013 33.5152 18.7231 33.5152 20.597C33.5152 22.5041 32.1904 24.0336 30.5961 24.0336ZM18.1868 24.2918C16.8727 24.2918 15.7525 23.0318 15.7525 21.4804C15.7525 19.9616 16.8614 18.7445 18.1868 18.7445C19.5437 18.7445 20.6318 19.9402 20.6318 21.459C20.6318 23.0318 19.5116 24.2918 18.1868 24.2918ZM12.1975 35.7749H20.6537C20.1362 35.484 19.7377 34.8374 19.8132 34.1806H11.9286C11.7132 34.1806 11.6055 34.0949 11.6055 33.8897C11.6055 31.2186 14.6537 28.7195 18.1766 28.7195C19.5336 28.7195 20.7507 29.0425 21.7959 29.6565C22.1424 29.2173 22.5526 28.8325 23.013 28.5149C21.6234 27.5988 19.9541 27.1252 18.1766 27.1252C13.6627 27.1252 10 30.3995 10 33.9866C10 35.1824 10.7323 35.7749 12.1975 35.7749ZM23.8311 35.7749H37.3611C39.1488 35.7749 40 35.2365 40 34.0515C40 31.2293 36.4343 27.1461 30.5961 27.1461C24.7466 27.1461 21.1814 31.2293 21.1814 34.0515C21.1814 35.2365 22.0321 35.7749 23.8311 35.7749ZM23.3141 34.1484C23.0339 34.1484 22.9155 34.0734 22.9155 33.8468C22.9155 32.08 25.6514 28.7736 30.5961 28.7736C35.53 28.7736 38.2654 32.08 38.2654 33.8468C38.2654 34.0729 38.1582 34.1484 37.8775 34.1484H23.3141Z" fill="white"/>
</g>
<defs>
<clipPath id="clip0_3_123">
<rect width="30" height="30" fill="white" transform="translate(10 10)"/>
</clipPath>
</defs>
</svg>
